<?xml version="1.0" encoding="UTF-8"?>
<!DOCTYPE svg PUBLIC "-//W3C//DTD SVG 1.1//EN" "http://www.w3.org/Graphics/SVG/1.1/DTD/svg11.dtd">
<!-- Creator: CorelDRAW X7 -->
<svg xmlns="http://www.w3.org/2000/svg" xml:space="preserve" width="166px" height="276px" version="1.1" style="shape-rendering:geometricPrecision; text-rendering:geometricPrecision; image-rendering:optimizeQuality; fill-rule:evenodd; clip-rule:evenodd"
viewBox="0 0 16600 27609"
 xmlns:xlink="http://www.w3.org/1999/xlink">
 <defs>
  <style type="text/css">
   <![CDATA[
    .fil0 {fill:#383435;fill-rule:nonzero}
   ]]>
  </style>
 </defs>
 <g id="Слой_x0020_1">
  <metadata id="CorelCorpID_0Corel-Layer"/>
  <path class="fil0" d="M14139 1738l-10050 0 -2205 3819 2385 6257 8084 0 2378 -6289 -1362 -2545c-54,-101 -51,-214 8,-312 60,-98 159,-154 273,-153l1283 9c120,1 223,63 278,170l1352 2589c43,82 49,170 16,258l-2952 7806c-47,126 -162,205 -296,205l-10039 0c-134,0 -248,-79 -296,-204l-2974 -7801c-35,-92 -28,-185 21,-271l2956 -5118c58,-100 157,-158 273,-158l10264 0c118,0 220,60 277,165l603 1106c55,100 53,214 -6,312 -58,99 -157,155 -271,155zm-1050 21406c-82,1191 -600,2263 -1395,3058 -869,869 -2070,1407 -3396,1407 -1326,0 -2527,-538 -3396,-1407 -869,-869 -1406,-2070 -1406,-3396 0,-1326 537,-2527 1406,-3396 675,-675 1550,-1150 2527,-1328l0 -1058c0,-173 142,-315 316,-315l1106 0c174,0 316,142 316,315l0 2401c0,174 -142,316 -316,316l-553 0c-846,0 -1612,343 -2167,898 -554,554 -897,1321 -897,2167 0,846 343,1613 897,2167 555,554 1321,898 2167,898 847,0 1613,-344 2167,-898 492,-491 817,-1148 885,-1880 15,-163 151,-287 314,-287l1110 0c91,0 169,34 231,100 62,67 91,147 84,238zm-8408 -8855l7235 0c174,0 316,142 316,316l0 1106c0,174 -142,316 -316,316l-7235 0c-174,0 -316,-142 -316,-316l0 -1106c0,-174 142,-316 316,-316z"/>
 </g>
</svg>
