<?xml version="1.0" encoding="UTF-8"?>
<!DOCTYPE svg PUBLIC "-//W3C//DTD SVG 1.1//EN" "http://www.w3.org/Graphics/SVG/1.1/DTD/svg11.dtd">
<!-- Creator: CorelDRAW X7 -->
<svg xmlns="http://www.w3.org/2000/svg" xml:space="preserve" width="190px" height="287px" version="1.1" style="shape-rendering:geometricPrecision; text-rendering:geometricPrecision; image-rendering:optimizeQuality; fill-rule:evenodd; clip-rule:evenodd"
viewBox="0 0 19000 28605"
 xmlns:xlink="http://www.w3.org/1999/xlink">
 <defs>
  <style type="text/css">
   <![CDATA[
    .fil0 {fill:#383435;fill-rule:nonzero}
   ]]>
  </style>
 </defs>
 <g id="Слой_x0020_1">
  <metadata id="CorelCorpID_0Corel-Layer"/>
  <path class="fil0" d="M5160 10773c-139,-69 -332,52 -454,297l-331 627c-122,244 -122,470 18,540l4236 2214 0 13754c0,296 208,400 401,400l975 0c210,0 366,-192 366,-435l0 -4044c4620,-280 8629,-4184 8629,-9571 0,-6972 -6363,-14555 -9501,-14555 -2963,0 -9499,7583 -9499,14555 0,5579 3712,9588 7408,9588 122,0 262,-87 262,-245l0 -1218c0,-193 -158,-193 -210,-193 -2300,0 -5717,-3225 -5717,-7932 0,-6101 5578,-12811 7756,-12811 2179,0 7757,6710 7757,12811 0,4672 -3050,7653 -6885,7897l0 -5142 4933 -2755c140,-69 227,-226 105,-470l-436 -783c-122,-245 -297,-245 -435,-176l-4167 2284 0 -3852 2963 -1518c141,-69 141,-296 17,-539l-331 -628c-121,-244 -313,-366 -452,-296l-2197 1115 0 -2422c0,-262 -173,-436 -435,-436l-872 0c-262,0 -435,174 -435,436l0 5299 -3469 -1796z"/>
 </g>
</svg>
