<?xml version="1.0" encoding="UTF-8"?>
<!DOCTYPE svg PUBLIC "-//W3C//DTD SVG 1.1//EN" "http://www.w3.org/Graphics/SVG/1.1/DTD/svg11.dtd">
<!-- Creator: CorelDRAW X7 -->
<svg xmlns="http://www.w3.org/2000/svg" xml:space="preserve" width="233px" height="232px" version="1.1" style="shape-rendering:geometricPrecision; text-rendering:geometricPrecision; image-rendering:optimizeQuality; fill-rule:evenodd; clip-rule:evenodd"
viewBox="0 0 23300 23250"
 xmlns:xlink="http://www.w3.org/1999/xlink">
 <defs>
  <style type="text/css">
   <![CDATA[
    .fil0 {fill:#383435;fill-rule:nonzero}
   ]]>
  </style>
 </defs>
 <g id="Слой_x0020_1">
  <metadata id="CorelCorpID_0Corel-Layer"/>
  <path class="fil0" d="M10261 23218c-2839,-338 -5366,-1700 -7203,-3706 -1899,-2075 -3058,-4835 -3058,-7862 0,-3217 1304,-6130 3412,-8238 2108,-2108 5021,-3412 8238,-3412 3217,0 6130,1304 8238,3412 2108,2108 3412,5021 3412,8238 0,3085 -1202,5892 -3162,7977 -1893,2013 -4495,3353 -7407,3622 -100,9 -189,-20 -264,-85 -76,-65 -117,-149 -123,-248l-56 -942c-11,-191 131,-356 321,-374 2486,-236 4707,-1384 6325,-3105 1680,-1787 2709,-4195 2709,-6845 0,-2760 -1118,-5258 -2927,-7066 -1808,-1809 -4306,-2927 -7066,-2927 -2760,0 -5258,1118 -7066,2927 -1809,1808 -2927,4306 -2927,7066 0,2604 992,4973 2617,6749 1567,1711 3725,2875 6153,3171 190,23 328,192 311,383l-81 943c-9,99 -52,182 -130,245 -77,63 -167,89 -266,77zm2217 -19329l0 6434 5826 -2865c87,-43 179,-49 271,-17 93,31 161,92 204,180l413 844c86,175 13,388 -162,474l-7342 3612c-192,94 -402,84 -583,-29 -181,-113 -283,-297 -283,-511l0 -8122c0,-196 159,-355 355,-355l946 0c196,0 355,159 355,355z"/>
 </g>
</svg>
