<?xml version="1.0" encoding="UTF-8"?>
<!DOCTYPE svg PUBLIC "-//W3C//DTD SVG 1.1//EN" "http://www.w3.org/Graphics/SVG/1.1/DTD/svg11.dtd">
<!-- Creator: CorelDRAW X7 -->
<svg xmlns="http://www.w3.org/2000/svg" xml:space="preserve" width="263px" height="253px" version="1.1" style="shape-rendering:geometricPrecision; text-rendering:geometricPrecision; image-rendering:optimizeQuality; fill-rule:evenodd; clip-rule:evenodd"
viewBox="0 0 26300 25303"
 xmlns:xlink="http://www.w3.org/1999/xlink">
 <defs>
  <style type="text/css">
   <![CDATA[
    .fil0 {fill:#383435;fill-rule:nonzero}
   ]]>
  </style>
 </defs>
 <g id="Слой_x0020_1">
  <metadata id="CorelCorpID_0Corel-Layer"/>
  <path class="fil0" d="M7945 22783c-106,0 -211,37 -263,193 -158,419 -665,734 -1225,734 -735,0 -1330,-630 -1330,-1346 0,-735 595,-1365 1330,-1365 804,0 1119,454 1225,665 70,141 70,193 192,193l1295 -18c141,0 210,-53 158,-280 -280,-1207 -1453,-2152 -2888,-2152 -1662,0 -2974,1294 -2974,2957 0,1644 1312,2939 2974,2939 1400,0 2730,-822 2905,-2240 18,-122 -34,-262 -175,-262l-1224 -18zm-7752 -9675l0 0c0,2029 593,5160 4899,5160l10219 0c3378,0 4549,-3131 4549,-5160l0 -2031c0,-262 -174,-438 -436,-438l-18794 0c-263,0 -437,176 -437,438l0 787c0,264 174,438 437,438l17481 0 0 910c0,1627 -997,3394 -2974,3394l-9871 0c-2781,0 -3324,-1767 -3324,-3394l0 489c0,-261 -176,-437 -437,-437l-875 0c-263,0 -437,176 -437,437l0 -593zm5844 -13108l0 0c-2031,0 -6037,1644 -6037,5250l0 3990c0,280 104,437 402,437l8890 0c262,0 437,-174 437,-437l0 -8802c0,-263 -175,-438 -437,-438l-788 0c-263,0 -437,175 -437,438l0 7577 -6405 0 0 -2590c0,-2434 2642,-3674 4270,-3674l735 0c262,0 437,-176 437,-438l0 -875c0,-263 -175,-438 -437,-438l-630 0zm19826 8820l0 0c263,0 437,-192 437,-438l0 -875c0,-226 -191,-438 -437,-438l-892 0c-333,0 -630,264 -893,509l-2205 3061 -683 0c-261,0 -367,123 -367,368l0 1015c0,245 123,384 385,367l805 0c316,0 613,-227 858,-472l2222 -3097 770 0zm-15347 13981l0 0c-139,0 -192,140 -174,262 174,1418 1505,2240 2905,2240 1662,0 2974,-1295 2974,-2939 0,-1663 -1312,-2957 -2974,-2957 -1436,0 -2607,945 -2888,2152 -53,227 18,280 157,280l1295 18c123,0 123,-52 193,-193 104,-211 420,-665 1225,-665 735,0 1330,630 1330,1365 0,716 -595,1346 -1330,1346 -560,0 -1069,-315 -1225,-734 -52,-156 -157,-193 -263,-193l-1225 18z"/>
 </g>
</svg>
