<?xml version="1.0" encoding="UTF-8"?>
<!DOCTYPE svg PUBLIC "-//W3C//DTD SVG 1.1//EN" "http://www.w3.org/Graphics/SVG/1.1/DTD/svg11.dtd">
<!-- Creator: CorelDRAW X7 -->
<svg xmlns="http://www.w3.org/2000/svg" xml:space="preserve" width="199px" height="284px" version="1.1" style="shape-rendering:geometricPrecision; text-rendering:geometricPrecision; image-rendering:optimizeQuality; fill-rule:evenodd; clip-rule:evenodd"
viewBox="0 0 19900 28371"
 xmlns:xlink="http://www.w3.org/1999/xlink">
 <defs>
  <style type="text/css">
   <![CDATA[
    .fil0 {fill:#383435;fill-rule:nonzero}
   ]]>
  </style>
 </defs>
 <g id="Слой_x0020_1">
  <metadata id="CorelCorpID_0Corel-Layer"/>
  <path class="fil0" d="M10508 15598l0 -5958c2808,-483 4084,-3037 4084,-5209l0 -3987c0,-472 -541,-524 -872,-279l-2427 1780 -1484 -1326c-227,-192 -436,-175 -698,0l-1502 1187 -2391 -1693c-401,-279 -681,18 -681,262l0 1082c0,245 193,401 384,540l2165 1694c332,261 698,315 1047,18l1361 -1205 1275 1100c262,227 542,331 891,52l1222 -977 0 1858c0,2042 -1327,3438 -3264,3438 -2445,0 -3353,-1884 -3353,-3613l0 -269c0,-228 -156,-384 -383,-384l-961 0c-226,0 -384,156 -384,384l0 338c0,1944 1173,4835 4242,5242l0 5925 -7542 0c-103,0 -192,45 -253,127 -62,83 -79,181 -50,280l316 1052c41,136 161,225 302,225l15119 0 -2054 6356 -9595 0 -1754 -5258c-44,-132 -162,-216 -300,-216l-1070 1c-104,0 -194,46 -255,131 -61,85 -77,184 -44,284l2144 6525c43,131 161,217 300,217l11565 0c139,0 257,-86 300,-219l2938 -9092c33,-99 17,-199 -45,-283 -61,-84 -151,-130 -255,-130l-8038 0zm9392 10590l0 0 0 -523c0,-261 -175,-435 -437,-435l-785 0c-262,0 -437,174 -437,435l0 176c0,436 -261,872 -872,872l-14838 0c-437,0 -873,-367 -873,-872l0 -176c0,-261 -174,-435 -437,-435l-785 0c-263,0 -436,174 -436,435l0 523c0,1223 1047,2183 2444,2183l15187 0c1396,0 2269,-960 2269,-2183zm-14426 -13885c36,-123 55,-279 27,-465 -47,-310 -229,-694 -664,-1149 -513,-534 -1073,-833 -1591,-987 -519,-155 -973,-170 -1286,-135 -45,313 -43,767 96,1291 138,521 420,1089 939,1617 445,452 822,646 1127,701l4 0c198,37 363,17 491,-21 114,-33 228,-4 312,80l785 784c72,72 103,165 89,266 -14,101 -69,182 -158,233 -392,220 -1032,454 -1822,310 -609,-112 -1304,-442 -2026,-1176 -751,-764 -1162,-1597 -1366,-2366 -323,-1217 -110,-2326 87,-2761l137 -303 307 -128c440,-184 1554,-363 2761,-4l3 0c761,226 1580,661 2321,1435 716,747 1026,1453 1118,2063 114,750 -106,1356 -328,1746 -50,89 -131,144 -232,158 -101,13 -193,-18 -265,-90l-787 -786c-83,-84 -113,-199 -79,-313zm6869 1032c-223,-390 -448,-1000 -333,-1756 93,-610 402,-1316 1118,-2063 740,-773 1561,-1208 2324,-1435 1207,-359 2321,-180 2762,4l306 128 138 303c197,435 409,1544 86,2761 -204,769 -615,1602 -1366,2366 -723,735 -1419,1065 -2026,1176 -784,143 -1420,-86 -1813,-305 -89,-50 -145,-131 -159,-233 -14,-101 17,-194 90,-266l786 -786c83,-84 197,-113 310,-81 126,37 289,55 484,19 307,-56 686,-250 1130,-702 520,-527 801,-1095 939,-1616 139,-524 141,-979 96,-1291 -314,-36 -769,-20 -1289,135 -516,153 -1074,452 -1587,987 -436,455 -618,839 -665,1149 -29,190 -8,349 30,472 34,115 5,231 -79,316l-785 784c-72,72 -164,103 -265,90 -101,-14 -182,-68 -232,-156z"/>
 </g>
</svg>
