<?xml version="1.0" encoding="UTF-8"?>
<!DOCTYPE svg PUBLIC "-//W3C//DTD SVG 1.1//EN" "http://www.w3.org/Graphics/SVG/1.1/DTD/svg11.dtd">
<!-- Creator: CorelDRAW X7 -->
<svg xmlns="http://www.w3.org/2000/svg" xml:space="preserve" width="11px" height="27px" version="1.1" style="shape-rendering:geometricPrecision; text-rendering:geometricPrecision; image-rendering:optimizeQuality; fill-rule:evenodd; clip-rule:evenodd"
viewBox="0 0 1100 2695"
 xmlns:xlink="http://www.w3.org/1999/xlink">
 <defs>
  <style type="text/css">
   <![CDATA[
    .fil0 {fill:#B2B3B3;fill-rule:nonzero}
   ]]>
  </style>
 </defs>
 <g id="Слой_x0020_1">
  <metadata id="CorelCorpID_0Corel-Layer"/>
  <path class="fil0" d="M420 850l-251 1194 381 427 380 -427 -271 -1300 -339 0c-8,0 -16,-3 -22,-10 -6,-7 -8,-15 -7,-24l13 -99c2,-15 15,-26 30,-26l429 0c15,0 27,10 30,24l306 1467c2,9 0,19 -7,26l-520 583c-6,7 -13,10 -22,10 -9,0 -16,-3 -22,-10l-520 -583c-7,-7 -9,-17 -7,-26l258 -1239c3,-14 15,-24 29,-23l103 0c9,0 17,4 23,11 6,8 8,16 6,25zm341 -348l-447 0 -82 -343c-5,-20 -5,-39 -1,-58 4,-18 13,-36 25,-52 12,-15 28,-28 45,-36 18,-9 37,-13 56,-13l385 0c20,0 39,4 57,13 17,8 33,21 45,36 12,16 20,34 25,52 4,18 4,37 0,56l-23 88c-3,13 -15,22 -29,22l-97 0c-10,0 -18,-4 -23,-11 -6,-7 -8,-16 -6,-25l15 -72 -311 0 44 184 348 0c10,0 18,4 24,11 6,8 7,17 5,26l-26 99c-3,14 -15,23 -29,23z"/>
 </g>
</svg>
