<?xml version="1.0" encoding="UTF-8"?>
<!DOCTYPE svg PUBLIC "-//W3C//DTD SVG 1.1//EN" "http://www.w3.org/Graphics/SVG/1.1/DTD/svg11.dtd">
<!-- Creator: CorelDRAW X7 -->
<svg xmlns="http://www.w3.org/2000/svg" xml:space="preserve" width="19px" height="27px" version="1.1" style="shape-rendering:geometricPrecision; text-rendering:geometricPrecision; image-rendering:optimizeQuality; fill-rule:evenodd; clip-rule:evenodd"
viewBox="0 0 1900 2709"
 xmlns:xlink="http://www.w3.org/1999/xlink">
 <defs>
  <style type="text/css">
   <![CDATA[
    .fil0 {fill:#B2B3B3;fill-rule:nonzero}
   ]]>
  </style>
 </defs>
 <g id="Слой_x0020_1">
  <metadata id="CorelCorpID_0Corel-Layer"/>
  <path class="fil0" d="M1003 1489l0 -568c268,-47 390,-290 390,-498l0 -380c0,-45 -51,-50 -83,-27l-232 170 -142 -127c-21,-18 -41,-16 -66,0l-144 114 -228 -162c-38,-27 -65,2 -65,25l0 103c0,24 19,38 37,52l207 161c31,25 66,31 100,2l129 -115 122 105c25,22 52,32 85,5l117 -93 0 177c0,195 -127,329 -312,329 -233,0 -320,-180 -320,-345l0 -26c0,-22 -15,-37 -36,-37l-92 0c-22,0 -37,15 -37,37l0 32c0,186 112,462 405,501l0 565 -720 0c-10,0 -18,5 -24,13 -6,7 -8,17 -5,26l30 101c4,13 16,21 29,21l1444 0 -196 607 -916 0 -168 -502c-4,-13 -15,-21 -29,-21l-102 0c-10,0 -18,5 -24,13 -6,8 -8,18 -4,27l204 623c5,13 16,21 29,21l1104 0c13,0 25,-8 29,-21l280 -868c3,-10 2,-19 -4,-27 -6,-8 -14,-13 -24,-13l-768 0zm897 1011l0 0 0 -49c0,-25 -17,-42 -42,-42l-75 0c-25,0 -41,17 -41,42l0 16c0,42 -25,84 -84,84l-1416 0c-42,0 -84,-35 -84,-84l0 -16c0,-25 -16,-42 -41,-42l-75 0c-26,0 -42,17 -42,42l0 49c0,117 100,209 233,209l1450 0c134,0 217,-92 217,-209zm-1377 -1325c3,-12 5,-27 2,-45 -4,-29 -22,-66 -63,-109 -49,-51 -103,-80 -152,-95 -50,-14 -93,-16 -123,-12 -4,29 -4,73 9,123 14,50 40,104 90,154 42,43 78,62 108,67l0 0c19,4 35,2 47,-2 11,-3 22,0 30,8l75 75c6,7 9,15 8,25 -1,10 -7,17 -15,22 -37,21 -98,44 -174,30 -58,-11 -125,-42 -193,-112 -72,-73 -111,-153 -131,-226 -31,-116 -10,-222 8,-264l14 -29 29 -12c42,-18 148,-35 263,0l1 0c72,21 151,63 221,137 69,71 98,138 107,196 11,72 -10,130 -31,167 -5,9 -13,14 -22,15 -10,2 -19,-1 -26,-8l-75 -75c-8,-8 -11,-19 -7,-30zm656 98c-22,-37 -43,-95 -32,-167 8,-59 38,-126 106,-197 71,-74 149,-116 222,-137 116,-35 222,-18 264,0l29 12 13 29c19,42 40,148 9,264 -20,73 -59,153 -131,226 -69,70 -135,101 -193,112 -75,14 -136,-8 -173,-29 -9,-5 -14,-13 -16,-22 -1,-10 2,-19 9,-26l75 -75c8,-8 19,-11 30,-7 12,3 27,5 46,1 29,-5 65,-24 108,-67 49,-50 76,-104 89,-154 14,-50 14,-93 10,-123 -30,-4 -74,-2 -123,13 -50,14 -103,43 -152,94 -42,43 -59,80 -63,110 -3,18 -1,33 2,45 4,11 1,22 -7,30l-75 75c-7,6 -16,9 -25,8 -10,-1 -18,-6 -22,-15z"/>
 </g>
</svg>
