<?xml version="1.0" encoding="UTF-8"?>
<!DOCTYPE svg PUBLIC "-//W3C//DTD SVG 1.1//EN" "http://www.w3.org/Graphics/SVG/1.1/DTD/svg11.dtd">
<!-- Creator: CorelDRAW X7 -->
<svg xmlns="http://www.w3.org/2000/svg" xml:space="preserve" width="14px" height="25px" version="1.1" style="shape-rendering:geometricPrecision; text-rendering:geometricPrecision; image-rendering:optimizeQuality; fill-rule:evenodd; clip-rule:evenodd"
viewBox="0 0 1400 2476"
 xmlns:xlink="http://www.w3.org/1999/xlink">
 <defs>
  <style type="text/css">
   <![CDATA[
    .fil0 {fill:#B2B3B3;fill-rule:nonzero}
   ]]>
  </style>
 </defs>
 <g id="Слой_x0020_1">
  <metadata id="CorelCorpID_0Corel-Layer"/>
  <path class="fil0" d="M159 340l934 0c16,0 30,13 30,30l0 100c0,16 -14,29 -30,29 -354,0 -709,0 -1063,0 -16,0 -30,-13 -30,-29l0 -205c0,-74 30,-140 78,-187 48,-48 114,-78 187,-78l871 0c72,0 139,30 187,78 47,48 77,114 77,187l0 1444c0,17 -13,30 -30,30l-100 0c-16,0 -29,-13 -29,-30l0 -1444c0,-29 -12,-55 -31,-75 -19,-19 -46,-30 -74,-30l-338 0c0,49 -40,89 -89,89 -49,0 -89,-40 -89,-89l-355 0c-29,0 -55,11 -74,30 -20,20 -32,46 -32,75l0 75zm1241 1531l0 130 0 210c0,73 -30,139 -77,187l-1 0c-48,48 -114,78 -186,78l-871 0c-73,0 -139,-30 -187,-78l0 0c-48,-48 -78,-114 -78,-187l0 -1578c0,-16 13,-29 30,-29l100 0c16,0 30,13 30,29l0 1578c0,29 11,55 31,74l-1 0c19,19 46,31 75,31l871 0c28,0 55,-12 74,-31 19,-19 31,-45 31,-74l0 -210 -946 0c-17,0 -30,-14 -30,-30l0 -100c0,-17 13,-30 30,-30l946 0 0 0 129 0c17,0 30,13 30,30zm-691 194c49,0 89,40 89,89 0,50 -40,89 -89,89 -49,0 -89,-39 -89,-89 0,-49 40,-89 89,-89z"/>
 </g>
</svg>
