<?xml version="1.0" encoding="UTF-8"?>
<!DOCTYPE svg PUBLIC "-//W3C//DTD SVG 1.1//EN" "http://www.w3.org/Graphics/SVG/1.1/DTD/svg11.dtd">
<!-- Creator: CorelDRAW X7 -->
<svg xmlns="http://www.w3.org/2000/svg" xml:space="preserve" width="121px" height="25px" version="1.1" style="shape-rendering:geometricPrecision; text-rendering:geometricPrecision; image-rendering:optimizeQuality; fill-rule:evenodd; clip-rule:evenodd"
viewBox="0 0 12100 2482"
 xmlns:xlink="http://www.w3.org/1999/xlink">
 <defs>
  <style type="text/css">
   <![CDATA[
    .fil0 {fill:#353682;fill-rule:nonzero}
   ]]>
  </style>
 </defs>
 <g id="Слой_x0020_1">
  <metadata id="CorelCorpID_0Corel-Layer"/>
  <path class="fil0" d="M3003 2390c0,68 48,92 92,92l505 0c48,0 84,-44 84,-100l0 -2282c0,-60 -40,-100 -100,-100l-481 0c-60,0 -100,40 -100,100l0 2290zm1922 0l0 0c0,68 48,92 92,92l504 0c49,0 85,-44 85,-100l0 -2282c0,-60 -41,-100 -101,-100l-1573 0c-60,0 -100,40 -100,100l0 461c0,60 40,100 100,100l993 0 0 1729zm3203 0l0 0c0,68 48,92 92,92l504 0c49,0 85,-44 85,-100l0 -1461c0,-60 -40,-100 -100,-100l-481 0c-60,0 -100,40 -100,100l0 1469zm-2042 12l0 0c0,48 32,80 80,80l929 0c48,0 100,-32 120,-80l829 -1741 669 0c60,0 96,-40 96,-100l0 -477c4,-52 -32,-84 -85,-84l-940 0c-88,0 -125,60 -152,124l-785 1698 -661 0c-60,0 -100,40 -100,100l0 480zm4116 -1481l0 0c-52,0 -84,32 -84,84l0 453c-4,52 32,84 84,84l721 0 388 864c36,52 64,76 116,76l589 0c56,0 104,-48 76,-108l-573 -1161 537 -1093c32,-64 -20,-120 -76,-120l-533 0c-60,0 -112,40 -128,72l-400 849 -717 0zm-913 1469l0 0c0,68 48,92 92,92l505 0c48,0 84,-44 84,-100l0 -2282c0,-60 -40,-100 -100,-100l-481 0c-60,0 -100,40 -100,100l0 2290zm-3203 -821l0 0c0,69 48,93 92,93l505 0c48,0 83,-44 83,-101l0 -1461c0,-60 -39,-100 -100,-100l-480 0c-60,0 -100,40 -100,100l0 1469zm-6086 433l0 0c0,320 160,480 440,480l1982 0c60,0 100,-40 100,-100l0 -460c0,-60 -40,-100 -100,-100l-1741 0 0 -901c0,-60 -40,-100 -100,-100l-481 0c-60,0 -100,40 -100,100l0 1081zm2422 -2002l0 0 -2322 0c-60,0 -100,40 -100,100l0 461c0,60 40,100 100,100l1742 0 0 536c0,52 32,88 84,84l512 0c52,0 84,-32 84,-84l0 -1097c0,-60 -40,-100 -100,-100z"/>
 </g>
</svg>
