<?xml version="1.0" encoding="UTF-8"?>
<!DOCTYPE svg PUBLIC "-//W3C//DTD SVG 1.1//EN" "http://www.w3.org/Graphics/SVG/1.1/DTD/svg11.dtd">
<!-- Creator: CorelDRAW X7 -->
<svg xmlns="http://www.w3.org/2000/svg" xml:space="preserve" width="37px" height="33px" version="1.1" style="shape-rendering:geometricPrecision; text-rendering:geometricPrecision; image-rendering:optimizeQuality; fill-rule:evenodd; clip-rule:evenodd"
viewBox="0 0 3700 3316"
 xmlns:xlink="http://www.w3.org/1999/xlink">
 <defs>
  <style type="text/css">
   <![CDATA[
    .fil0 {fill:#B2B3B3;fill-rule:nonzero}
   ]]>
  </style>
 </defs>
 <g id="Слой_x0020_1">
  <metadata id="CorelCorpID_0Corel-Layer"/>
  <path class="fil0" d="M611 47l0 1335c89,22 168,68 231,130l0 0c89,90 144,213 144,349 0,136 -55,259 -144,348l0 1c-90,89 -213,144 -349,144 -136,0 -259,-55 -349,-144l0 -1c-89,-89 -144,-212 -144,-348 0,-136 55,-259 144,-349 63,-62 142,-108 231,-130l0 -1335c0,-26 21,-47 47,-47l142 0c26,0 47,21 47,47zm2478 2015l0 -2015c0,-26 21,-47 47,-47l142 0c26,0 47,21 47,47l0 2015c88,21 167,67 230,130l1 0c89,89 144,212 144,349 0,135 -55,259 -144,348l-1 0c-89,90 -212,145 -348,145 -136,0 -260,-55 -349,-145l0 0c-89,-89 -145,-213 -145,-348 0,-137 56,-260 145,-349 62,-63 142,-109 231,-130zm-64 660l0 0c47,47 111,76 182,76 71,0 135,-29 182,-76 46,-46 75,-110 75,-181 0,-71 -29,-136 -76,-182l1 0c-47,-47 -111,-75 -182,-75 -71,0 -135,28 -182,75 -47,46 -75,111 -75,182 0,71 28,135 75,181zm64 547l0 -79c0,-26 21,-47 47,-47l142 0c26,0 47,21 47,47l0 79c0,26 -21,47 -47,47l-142 0c-26,0 -47,-21 -47,-47zm-1347 -3008l0 -214c0,-26 21,-47 48,-47l141 0c26,0 48,21 48,47l0 214c88,22 167,68 230,130l0 0c89,89 145,213 145,349 0,136 -56,259 -145,348l0 1c-90,89 -213,144 -349,144 -136,0 -259,-55 -348,-144l0 -1c-90,-89 -145,-212 -145,-348 0,-136 55,-260 145,-349 62,-62 142,-108 230,-130zm-64 661l1 0c46,46 110,75 181,75 72,0 136,-29 182,-75 47,-47 75,-111 75,-182 0,-71 -28,-135 -75,-182l0 0c-46,-46 -110,-75 -182,-75 -71,0 -135,29 -181,75 -47,47 -76,111 -76,182 0,71 29,135 75,182zm64 2347l0 -1838c0,-26 21,-47 48,-47l141 0c26,0 48,21 48,47l0 1838c0,26 -22,47 -48,47l-141 0c-27,0 -48,-21 -48,-47zm-1131 -737l0 737c0,26 -21,47 -47,47l-142 0c-26,0 -47,-21 -47,-47l0 -737c0,-26 21,-48 47,-48l142 0c26,0 47,22 47,48zm64 -853c-46,-46 -111,-75 -182,-75 -71,0 -135,29 -181,75 -47,47 -76,111 -76,182 0,71 29,136 75,182l1 0c46,46 110,75 181,75 71,0 136,-29 182,-75 47,-46 75,-111 75,-182 0,-71 -28,-135 -75,-182l0 0z"/>
 </g>
</svg>
