<?xml version="1.0" encoding="UTF-8"?>
<!DOCTYPE svg PUBLIC "-//W3C//DTD SVG 1.1//EN" "http://www.w3.org/Graphics/SVG/1.1/DTD/svg11.dtd">
<!-- Creator: CorelDRAW X7 -->
<svg xmlns="http://www.w3.org/2000/svg" xml:space="preserve" width="214px" height="59px" version="1.1" style="shape-rendering:geometricPrecision; text-rendering:geometricPrecision; image-rendering:optimizeQuality; fill-rule:evenodd; clip-rule:evenodd"
viewBox="0 0 21400 5890"
 xmlns:xlink="http://www.w3.org/1999/xlink">
 <defs>
  <style type="text/css">
   <![CDATA[
    .fil1 {fill:#2B2A29;fill-rule:nonzero}
    .fil0 {fill:#353682;fill-rule:nonzero}
   ]]>
  </style>
 </defs>
 <g id="Слой_x0020_1">
  <metadata id="CorelCorpID_0Corel-Layer"/>
  <g id="_742517040">
   <path class="fil0" d="M1996 16l16 -16 -32 0 -245 0 47 230 214 -214zm3213 5632l0 -238 0 -2006 -190 40 0 1966 0 367 80 62 110 -191zm-367 -9l0 -229 0 -1928 -190 40 0 1888 0 81 190 148zm734 -627l0 -1685 -190 40 0 1975 190 -330zm1101 -1907l0 -11 -190 41 0 299 190 -329zm-367 636l0 -569 -190 40 0 858 190 -329zm-367 636l0 -1128 -190 41 0 1416 190 -329zm-1468 976l0 -1794 -95 20 -95 20 0 1606 95 74 95 74zm-367 -286l0 -1430 -190 40 0 1242 190 148zm-367 -287l0 -1066 -190 40 0 878 190 148zm-367 -286l0 -702 -190 40 0 514 190 148zm-367 -286l0 -339 -190 40 0 151 106 82 84 66zm-1248 1682l3071 0 -1974 -1539 -383 -299 -714 1838zm-525 -925c-31,0 -60,11 -83,29l83 144 50 87c50,-20 85,-69 85,-125 0,-74 -60,-135 -135,-135zm-134 -232c0,74 60,134 134,134 75,0 135,-60 135,-134 0,-74 -60,-135 -135,-135 -74,0 -134,61 -134,135zm-98 3l0 -3c0,-51 -28,-95 -70,-118l70 121zm98 -370c0,74 60,134 134,134 75,0 135,-60 135,-134 0,-74 -60,-135 -135,-135 -74,0 -134,61 -134,135zm-233 -135c-50,0 -94,28 -117,69l116 200 1 0c74,0 135,-60 135,-134 0,-74 -61,-135 -135,-135zm233 -232c0,74 60,135 134,135 75,0 135,-61 135,-135 0,-74 -60,-135 -135,-135 -74,0 -134,61 -134,135zm-600 -135l-1 0 117 203c12,-20 19,-43 19,-68 0,-74 -61,-135 -135,-135zm367 0c-74,0 -134,61 -134,135 0,74 60,135 134,135 74,0 135,-61 135,-135 0,-74 -61,-135 -135,-135zm233 -232c0,74 60,134 134,134 75,0 135,-60 135,-134 0,-8 -1,-16 -2,-24l-133 -48 -86 -32c-30,25 -48,62 -48,104zm-600 -135c-74,0 -134,60 -134,135l0 2 65 113c21,12 44,19 69,19 74,0 135,-60 135,-134 0,-75 -61,-135 -135,-135zm367 0c-74,0 -134,60 -134,135 0,74 60,134 134,134 74,0 135,-60 135,-134 0,-75 -61,-135 -135,-135zm-784 -357l-2 1 134 231c32,-25 53,-64 53,-107 0,-23 -6,-45 -16,-64l-169 -61zm284 103c-1,7 -1,15 -1,22 0,74 60,134 134,134 49,0 92,-26 115,-65l-17 -6 -231 -85zm1234 2090c-74,0 -134,59 -134,134 0,74 60,135 134,135 19,0 38,-4 54,-12l69 -178c-21,-47 -68,-79 -123,-79zm0 -368c-74,0 -134,61 -134,135 0,74 60,134 134,134 74,0 135,-60 135,-134 0,-74 -61,-135 -135,-135zm287 27c-33,24 -54,64 -54,108 0,9 0,17 2,25l52 -133zm-287 707c-13,0 -27,3 -39,6l29 51 22 -56c-4,0 -8,-1 -12,-1zm0 -1101c-74,0 -134,61 -134,135 0,74 60,134 134,134 74,0 135,-60 135,-134 0,-74 -61,-135 -135,-135zm367 0c-74,0 -134,61 -134,135 0,64 44,117 104,131l96 -248c-19,-11 -42,-18 -66,-18zm-367 -367c-74,0 -134,61 -134,135 0,74 60,134 134,134 74,0 135,-60 135,-134 0,-74 -61,-135 -135,-135zm367 0c-74,0 -134,61 -134,135 0,74 60,134 134,134 75,0 135,-60 135,-134 0,-74 -60,-135 -135,-135zm-367 -367c-74,0 -134,61 -134,135 0,74 60,135 134,135 74,0 135,-61 135,-135 0,-74 -61,-135 -135,-135zm367 0c-74,0 -134,61 -134,135 0,74 60,135 134,135 75,0 135,-61 135,-135 0,-74 -60,-135 -135,-135zm257 58c-15,22 -24,48 -24,77 0,36 14,69 37,93l56 -145 -69 -25zm-758 -277c7,68 65,121 134,121 37,0 70,-14 94,-38l-228 -83zm-315 -334c49,-18 107,-30 189,-30 145,0 213,37 292,79 89,47 189,101 381,101 89,0 158,-12 216,-29l-33 -156 -6 -31c-46,16 -101,26 -177,26 -144,0 -212,-37 -291,-79 -89,-47 -190,-101 -382,-101 -191,0 -292,54 -381,101 -19,10 -37,20 -56,29l151 55 97 35zm-484 -407c-144,0 -212,-37 -291,-79 -73,-39 -153,-81 -284,-96l-93 162 77 28c92,11 148,40 210,74l17 8 218 80c43,8 91,13 146,13 192,0 293,-54 381,-101 80,-43 148,-79 292,-79 145,0 213,36 292,79 89,47 189,101 381,101 55,0 102,-5 144,-12l-38 -186c-31,5 -65,8 -106,8 -144,0 -212,-37 -291,-79 -89,-47 -190,-101 -382,-101 -191,0 -292,54 -381,101 -79,42 -147,79 -292,79zm0 -367c-144,0 -212,-37 -291,-79 -31,-16 -63,-33 -99,-48l-96 166c38,14 70,31 105,50 89,47 190,101 381,101 192,0 293,-54 381,-101 80,-42 148,-79 292,-79 145,0 213,37 292,79 89,47 189,101 381,101 25,0 48,-1 70,-3l-38 -188c-10,0 -21,1 -32,1 -144,0 -212,-37 -291,-79 -89,-47 -190,-101 -382,-101 -191,0 -292,54 -381,101 -79,42 -147,79 -292,79zm0 -367c-104,0 -168,-19 -226,-45l-95 164c77,37 171,71 321,71 192,0 293,-54 381,-102 80,-42 148,-78 292,-78 145,0 213,36 292,78 88,48 188,101 377,101l-40 -190c-115,-7 -177,-40 -247,-78 -89,-47 -190,-101 -382,-101 -191,0 -292,54 -381,101 -79,42 -147,79 -292,79zm0 -367c-14,0 -27,-1 -39,-1l-104 179c42,7 89,12 143,12 192,0 293,-54 381,-101 80,-42 148,-79 292,-79 145,0 213,37 292,79 76,40 159,85 301,97l-41 -197c-69,-14 -118,-40 -170,-68 -89,-47 -190,-101 -382,-101 -191,0 -292,54 -381,101 -79,42 -147,79 -292,79zm64 -180c152,-10 239,-57 317,-99 80,-41 148,-78 292,-78 145,0 213,37 292,78 61,33 127,68 223,87l-43 -210c-32,-13 -60,-28 -90,-44 -89,-47 -190,-101 -382,-101 -191,0 -292,54 -381,101 -34,18 -66,35 -103,49l-125 217zm248 -430c25,-12 47,-24 69,-35 80,-42 148,-79 292,-79 145,0 213,37 292,79 42,22 87,46 144,65l-47 -229 -7 -4c-89,-47 -190,-101 -382,-101 -80,0 -145,10 -199,24l-162 280zm275 -476c26,-3 54,-5 86,-5 145,0 213,37 292,78 20,11 40,22 61,32l-48 -238c-69,-32 -154,-58 -279,-62l-26 45 -86 150zm1005 2866c-57,29 -118,51 -216,54l246 90 -30 -144zm-696 -3397l-2 -1 -99 171c59,12 103,32 147,55l-46 -225zm3410 2808l-318 317 525 -111 187 -39 967 -968 -205 -356 -1156 1157zm-983 458l720 -721 -281 -281 281 281 1227 -1226 -206 -357 -1302 1302 -1151 1152 712 -150zm-1377 290l1554 -1554 1372 -1372 -205 -356 -1448 1447 -1461 1461 81 397 107 -23zm-277 -808l1288 -1289 1518 -1517 -74 -128 -361 0 -1364 1364 -1103 1103 96 467zm-185 -902l930 -930 1102 -1102 -562 0 -821 821 -745 745 96 466zm-185 -901l572 -572 559 -559 -562 0 -278 278 -387 386 96 467zm4421 1815l340 -72 -98 -170 -103 -178 -495 495 356 -75z"/>
   <path class="fil1" d="M10599 4550l0 311c0,31 -19,50 -50,50l-137 0c-30,2 -49,-19 -49,-50l0 -476c0,-35 24,-59 59,-59l153 0 257 -1362c10,-51 35,-63 85,-63l770 0c36,0 59,24 59,59l0 1178c0,35 -21,59 -49,59l-142 0c-23,0 -44,-24 -44,-59l0 -1013 -481 0 -203 1201 1133 0c36,0 59,24 59,59l0 476c0,31 -19,50 -49,50l-137 0c-30,2 -49,-19 -49,-50l0 -311 -1185 0zm-1631 -3498l-90 0c-25,0 -40,15 -40,39l0 3677c0,33 28,36 36,36l101 0c18,0 32,-17 32,-40l0 -3673c0,-24 -15,-39 -39,-39zm11906 450l-79 0c-11,0 -22,9 -27,23l-129 647c-3,10 -3,18 0,23 3,3 7,5 14,5l95 0c15,0 20,-13 24,-30l115 -650c2,-4 1,-9 -2,-12 -2,-4 -7,-6 -11,-6zm353 -179c-3,-16 -11,-22 -28,-22l-394 0c-15,0 -24,8 -24,23l0 69c0,7 1,12 5,16 4,5 11,7 19,7l319 0 1 3 140 755c3,22 13,26 25,26l93 0c4,0 11,-1 15,-6 3,-5 3,-13 0,-21l-171 -850zm-948 2c-4,-18 -12,-24 -29,-24l-392 0c-17,0 -22,12 -24,22l-168 852c-2,9 -1,16 2,20 2,3 6,5 12,5l95 0c14,0 22,-8 24,-25l49 -286 287 0c7,0 14,-3 18,-7 4,-4 5,-10 5,-16l0 -62c0,-15 -9,-24 -23,-24l-268 0 62 -364 253 0 1 3 129 755c3,18 10,26 25,26l95 0c5,0 9,-2 11,-5 4,-4 5,-11 3,-20l-167 -850zm-774 -24l-765 0c-17,0 -28,11 -28,29l0 199c0,15 9,24 23,23l76 0c14,0 23,-9 23,-23l0 -113 228 0 0 758c0,24 20,26 26,26l176 0c8,0 14,-3 19,-7 3,-4 5,-10 5,-16l0 -63c0,-14 -9,-23 -24,-23l-80 0 0 -675 228 0 0 113c0,7 2,13 5,17 4,4 10,7 18,6l75 0c15,0 23,-8 23,-23l0 -199c0,-18 -11,-29 -28,-29zm-1574 0c-17,0 -28,11 -28,29l0 842c0,16 11,28 28,28l65 0c17,0 28,-12 28,-28l0 -756 334 0c35,0 69,21 69,69l0 220c0,33 -27,69 -69,69l-226 0c-17,0 -29,11 -29,28l0 58c0,18 12,29 29,29l252 0c91,0 165,-80 165,-177l0 -247c0,-108 -83,-164 -165,-164l-453 0zm-451 24c-4,-18 -11,-24 -28,-24l-393 0c-16,0 -22,12 -23,22l-169 852c-2,9 -1,16 3,20 2,3 6,5 12,5l94 0c15,0 22,-8 24,-25l49 -286 287 0c8,0 14,-3 18,-7 4,-4 6,-10 6,-16l0 -62c0,-15 -9,-24 -24,-24l-268 0 63 -364 253 0 0 3 130 755c2,18 9,26 24,26l95 0c5,0 9,-2 12,-5 3,-4 4,-11 2,-20l-167 -850zm-1000 371l1 -5 90 -302c5,-20 1,-43 -13,-61 -13,-17 -32,-27 -51,-27l-299 0c-17,0 -28,11 -28,29l0 58c0,17 11,28 28,28l222 0 -73 280 -149 0c-17,0 -28,11 -28,29l0 51c0,17 11,29 28,29l253 0c34,0 68,34 68,69l0 142c0,34 -34,69 -68,69l-361 0 0 -755c0,-18 -11,-29 -28,-29l-65 0c-17,0 -29,11 -29,29l0 842c0,16 12,28 29,28l479 0c91,0 165,-80 165,-178l0 -162c0,-108 -83,-164 -165,-164l-6 0zm-1358 -395l-65 0c-17,0 -28,11 -28,29l0 844c0,24 20,26 25,26l73 0c13,0 24,-13 24,-28l0 -842c0,-18 -12,-29 -29,-29zm347 438l1 -2 210 -409c5,-10 7,-18 4,-22 -2,-4 -8,-5 -13,-5l-90 0c-19,0 -34,12 -38,21l-183 374 -107 0c-15,0 -23,8 -23,23l0 62c-1,7 1,13 5,17 4,4 10,7 18,7l109 0 230 372c12,17 20,23 34,23l106 0c8,0 14,-3 17,-8 1,-5 0,-11 -5,-17l-275 -436zm4241 1221c0,-35 23,-59 59,-59l117 0c36,0 59,24 59,59l0 1366 530 0c59,0 118,-59 118,-117l0 -236c0,-59 -59,-118 -118,-118l-341 0c-36,0 -59,-23 -59,-59l0 -106c0,-35 23,-59 59,-59l388 0c165,0 307,118 307,307l0 283c0,188 -142,329 -307,329l-753 0c-36,0 -59,-23 -59,-59l0 -1531zm1413 0l0 0c0,-35 24,-59 60,-59l117 0c36,0 59,24 59,59l0 1531c0,34 -21,59 -50,59l-131 0c-26,0 -55,-14 -55,-54l0 -1536zm-3145 0c0,-35 24,-59 59,-59l1036 0c36,0 59,24 59,59l0 351c0,31 -18,49 -49,49l-136 0c-31,3 -50,-18 -50,-49l0 -186 -683 0 0 1201 636 0c59,0 117,-59 117,-117l0 -248c0,-59 -58,-117 -117,-117l-448 0c-35,0 -59,-24 -59,-59l0 -95c0,-35 24,-59 59,-59l495 0c165,0 306,118 306,307l0 283c0,188 -141,329 -306,329l-860 0c-35,0 -59,-23 -59,-59l0 -1531zm-1296 836l0 695c0,36 -23,59 -59,59l-118 0c-35,0 -58,-23 -58,-59l0 -695 -274 0 -398 710c-14,32 -38,44 -68,44l-187 0c-32,0 -44,-19 -25,-56l443 -752 -351 -782c-15,-40 2,-59 35,-59l167 0c35,0 45,21 52,42l294 641 312 0 0 -624c0,-33 21,-59 49,-59l132 0c26,0 54,14 54,54l0 629 417 0c40,0 61,21 73,50l420 860c16,37 7,56 -26,56l-170 0c-31,0 -52,-9 -66,-44l-356 -710 -292 0zm417 -341l0 0c-28,0 -52,-17 -35,-57l212 -455c7,-21 30,-42 66,-42l162 0c33,0 45,21 33,47l-216 448c-15,30 -38,59 -69,59l-153 0zm-2728 520c-116,0 -175,-87 -210,-200l-299 -815c-12,-35 2,-59 35,-59l172 0c28,0 43,12 54,52l259 728c17,49 26,71 78,71l135 0c30,0 52,18 49,49l0 125c0,31 -19,49 -49,49l-224 0zm414 528l0 0c-9,28 -32,47 -56,47l-415 0c-30,0 -52,-19 -49,-49l0 -113c0,-31 19,-50 49,-50l295 0 462 -1378c7,-26 16,-59 51,-59l172 0c31,0 45,19 33,59l-542 1543zm-2365 -1543c0,-35 24,-59 59,-59l825 0c165,0 306,118 306,306l0 448c0,189 -141,330 -306,330l-460 0c-35,0 -59,-24 -59,-59l0 -106c0,-35 24,-59 59,-59l412 0c69,0 118,-59 118,-118l0 -400c0,-83 -59,-118 -118,-118l-601 0 0 1366c0,36 -23,59 -58,59l-118 0c-35,0 -59,-23 -59,-59l0 -1531z"/>
  </g>
 </g>
</svg>
