<?xml version="1.0" encoding="UTF-8"?>
<!DOCTYPE svg PUBLIC "-//W3C//DTD SVG 1.1//EN" "http://www.w3.org/Graphics/SVG/1.1/DTD/svg11.dtd">
<!-- Creator: CorelDRAW X7 -->
<svg xmlns="http://www.w3.org/2000/svg" xml:space="preserve" width="25px" height="34px" version="1.1" style="shape-rendering:geometricPrecision; text-rendering:geometricPrecision; image-rendering:optimizeQuality; fill-rule:evenodd; clip-rule:evenodd"
viewBox="0 0 2500 3292"
 xmlns:xlink="http://www.w3.org/1999/xlink">
 <defs>
  <style type="text/css">
   <![CDATA[
    .fil0 {fill:#B2B3B3;fill-rule:nonzero}
   ]]>
  </style>
 </defs>
 <g id="Слой_x0020_1">
  <metadata id="CorelCorpID_0Corel-Layer"/>
  <path class="fil0" d="M1180 3278c-304,-308 -628,-690 -859,-1077 -193,-324 -321,-653 -321,-951 0,-345 140,-658 366,-884 226,-226 539,-366 884,-366 345,0 658,140 884,366 226,226 366,539 366,884 0,258 -87,534 -229,809 -159,307 -387,613 -636,885 -22,24 -45,48 -68,71 -18,18 -47,19 -65,2l-101 -95c-9,-9 -14,-20 -15,-33 0,-13 4,-24 13,-33l6 -7c23,-24 50,-51 59,-62 237,-258 453,-547 602,-835 125,-242 202,-483 202,-702 0,-281 -114,-536 -298,-720 -184,-184 -439,-298 -720,-298 -281,0 -536,114 -720,298 -184,184 -298,439 -298,720 0,253 115,542 288,832 219,368 531,735 825,1032 18,18 17,48 0,66l-99 98c-9,9 -20,14 -33,14 -13,0 -24,-5 -33,-14zm54 -1679c-134,0 -255,-54 -343,-142l0 0c-87,-88 -142,-209 -142,-343 0,-133 55,-254 142,-342 88,-88 209,-142 343,-142 133,0 254,54 342,142l0 0c88,88 142,209 142,342 0,134 -54,255 -142,343l0 0c-88,88 -209,142 -342,142zm-179 -306l0 0c46,46 109,74 179,74 70,0 133,-28 178,-74 46,-45 74,-109 74,-179 0,-69 -28,-132 -74,-178l0 0c-45,-46 -108,-74 -178,-74 -70,0 -133,28 -179,74 -45,46 -74,109 -74,178 0,70 29,134 74,179z"/>
 </g>
</svg>
